<svg xmlns="http://www.w3.org/2000/svg" fill="none" viewBox="0 0 200 200" stroke-width=".75" style="background-color: transparent"><g transform="matrix(0.9,0,0,0.9,10,10.000949089138203)"><g id="Interface-Interface-testing-01"><g id="color 2"><path id="Vector" fill="#64748b" d="M45.7409 135.612L37.9519 136.144C38.3064 136.132 38.6524 136.254 38.9209 136.486C42.2649 139.355 28.0729 163.406 23.3429 162.57C23.0971 162.478 22.8666 162.35 22.6589 162.19C25.1999 164.73 31.4709 159.155 33.9999 156C37.2669 151.934 42.0169 150.111 46.6899 149.446C48.0709 145.675 47.5999 138.837 45.7409 135.612Z"></path><path id="Vector_2" fill="#64748b" d="M161.288 193.347C157.868 190.479 152.853 186.947 148.369 185.634L146.2 181.34C142.707 183.152 138.811 184.047 134.877 183.94L135.903 185.631C135.106 187.894 134.601 190.25 134.403 192.641C134.381 192.927 134.418 193.214 134.512 193.484C134.606 193.755 134.754 194.003 134.949 194.214C135.143 194.424 135.379 194.592 135.641 194.707C135.903 194.823 136.187 194.882 136.473 194.883C144.244 194.902 151.026 194.978 160.673 194.997C160.865 194.997 161.052 194.939 161.21 194.83C161.367 194.72 161.488 194.566 161.554 194.386C161.621 194.206 161.632 194.01 161.584 193.825C161.537 193.639 161.433 193.472 161.288 193.347Z"></path><path id="Vector_3" stroke="#64748b" stroke-linecap="round" stroke-linejoin="round" d="M66.3 77.706C66.5002 77.2797 66.8327 76.9295 67.248 76.7075C67.6634 76.4855 68.1393 76.4037 68.605 76.4741C69.0706 76.5446 69.501 76.7637 69.8321 77.0986C70.1631 77.4336 70.3771 77.8666 70.442 78.333C69.014 78.143 67.627 77.934 66.3 77.706Z"></path><path id="Subtract" fill="#64748b" fill-rule="evenodd" d="M82.0999 74.476C82.1007 73.7722 81.9626 73.0752 81.6936 72.4248C81.4246 71.7745 81.03 71.1835 80.5323 70.6859C80.0346 70.1883 79.4436 69.7938 78.7932 69.5249C78.1428 69.256 77.4457 69.1181 76.7419 69.119H38.4649C37.7612 69.1181 37.0641 69.256 36.4138 69.5249C35.7634 69.7938 35.1725 70.1884 34.6749 70.686C34.1773 71.1836 33.7827 71.7745 33.5138 72.4249C33.2449 73.0753 33.107 73.7723 33.1079 74.476V96.267C33.107 96.9708 33.2449 97.6678 33.5138 98.3181C33.7827 98.9685 34.1773 99.5594 34.6749 100.057C35.1725 100.555 35.7634 100.949 36.4138 101.218C37.0641 101.487 37.7612 101.625 38.4649 101.624H76.7459C77.4494 101.624 78.146 101.486 78.796 101.217C79.4459 100.948 80.0364 100.553 80.5337 100.056C81.031 99.5581 81.4253 98.9674 81.694 98.3173C81.9628 97.6672 82.1007 96.9705 82.0999 96.267V92.6589C77.7295 92.7339 73.3605 92.4935 69.027 91.94L70.3819 94.291H44.7539L52.7899 80.365C51.2989 79.9039 49.7302 79.4747 48.2111 79.114C45.8771 78.553 46.2561 78.036 46.6341 77.955C48.0134 77.7588 49.4125 77.746 50.7951 77.917C50.771 77.8961 50.7469 77.8752 50.7228 77.8543C50.4619 77.6283 50.2017 77.403 49.9591 77.176C47.4591 74.838 47.6281 73.876 51.4051 75.884C52.3385 76.4181 53.4993 76.9984 54.4761 77.4405L55.05 76.452L55.956 78.0397C57.9513 78.8005 60.2397 79.488 62.3501 79.8623C62.8007 78.9756 63.3683 78.1154 64.061 77.288C64.8438 77.4364 65.4482 77.5494 66.2335 77.6818C66.4336 77.2555 66.7661 76.9053 67.1815 76.6833C67.5968 76.4613 68.0728 76.3795 68.5384 76.45C69.0041 76.5205 69.4345 76.7395 69.7655 77.0745C70.0966 77.4094 70.3105 77.8424 70.3755 78.3088C74.2645 78.8302 78.1774 79.1581 82.0999 79.291V74.476Z" clip-rule="evenodd"></path><path id="Subtract_2" fill="#64748b" fill-rule="evenodd" d="M181.521 48.866C181.522 48.1622 181.384 47.4651 181.115 46.8148C180.846 46.1644 180.451 45.5735 179.953 45.0759C179.456 44.5783 178.865 44.1837 178.214 43.9149C177.564 43.646 176.867 43.5081 176.163 43.509H137.886C137.182 43.5081 136.485 43.646 135.835 43.9149C135.185 44.1838 134.594 44.5783 134.096 45.0759C133.598 45.5736 133.204 46.1645 132.935 46.8148C132.666 47.4652 132.528 48.1622 132.529 48.866V73.707C135.644 74.3619 137.884 74.6451 138.186 74.533C144.435 72.217 150.098 68.34 155.835 63.362C156.481 63.5186 157.047 63.7348 157.65 64.073C159.455 62.724 162.183 59.961 162.791 58.651C163.242 57.438 163.948 56.3363 164.863 55.421H165.163C165.772 55.801 165.068 58.955 164.745 60.266C166.651 58.9646 168.3 57.322 169.609 55.421C170.369 54.395 171.224 53.312 171.642 53.559C172.231 53.906 171.801 55.509 171.584 56.167C171.198 57.3198 170.628 58.4025 169.896 59.373C170.718 60.377 170.311 62.17 169.536 63.101C170.503 63.501 170.142 65.132 169.203 66.24C170.067 66.21 170.301 67.839 169.326 68.777L169.317 68.7833C168.866 69.1138 168.022 69.7323 163.515 72.919C163.645 73.6685 163.683 74.3438 163.663 75.088C160.747 77.5495 157.666 79.721 154.465 81.7015H176.167C176.871 81.7019 177.567 81.5635 178.217 81.2944C178.867 81.0253 179.458 80.6307 179.955 80.1331C180.452 79.6356 180.846 79.0448 181.115 78.3947C181.384 77.7446 181.522 77.0479 181.521 76.3445V48.866Z" clip-rule="evenodd"></path></g><g id="color 1"><path id="Vector_4" fill="#0f172a" d="M157.393 79.8C156.633 80.314 155.873 80.808 155.113 81.282C155.029 81.6585 155.06 82.0514 155.2 82.4107C155.34 82.7699 155.585 83.0792 155.902 83.2991C156.218 83.519 156.594 83.6395 156.979 83.6454C157.365 83.6512 157.744 83.542 158.067 83.3318C158.39 83.1216 158.644 82.8199 158.795 82.465C158.946 82.1102 158.989 81.7184 158.916 81.3395C158.844 80.9606 158.66 80.6119 158.389 80.3377C158.118 80.0635 157.771 79.8763 157.393 79.8Z"></path><path id="Vector_5" fill="#0f172a" d="M59.534 101.624C59.5342 102.008 59.4206 102.382 59.2076 102.701C58.9945 103.02 58.6917 103.269 58.3374 103.416C57.983 103.562 57.5931 103.601 57.217 103.526C56.8409 103.451 56.4955 103.266 56.2245 102.994C55.9536 102.723 55.7692 102.377 55.6948 102.001C55.6204 101.625 55.6593 101.235 55.8065 100.881C55.9538 100.527 56.2028 100.224 56.5221 100.012C56.8413 99.7992 57.2164 99.6862 57.6 99.687C58.1124 99.6902 58.603 99.8954 58.9651 100.258C59.3272 100.621 59.5316 101.112 59.534 101.624Z"></path><path id="Vector_6" fill="#0f172a" d="M69.0331 91.954C66.7331 91.669 64.1511 91.233 61.7951 90.719C61.4115 89.5096 61.1568 88.263 61.0351 87C59.2447 86.5643 57.4068 86.3536 55.5641 86.373C51.4791 86.487 52.8641 85.423 54.2721 84.948C55.8291 84.435 59.6102 83.637 58.1852 82.573C57.2732 82.136 56.5851 81.773 56.0571 81.473C54.9889 81.0473 53.8983 80.6801 52.7901 80.373L44.7542 94.291H70.3822L69.0331 91.954Z"></path><path id="Vector_7" fill="#0f172a" d="M139.041 49.968V55.421H169.571C170.331 54.395 171.18 53.321 171.604 53.559C171.923 53.738 172.004 54.433 171.775 55.421H174.985V49.968H139.041Z"></path><path id="Vector_8" fill="#0f172a" d="M110.2 61.006L110.143 61.063L111.283 63.363C113.259 62.869 114.721 62.109 114.836 60.663C114.576 61.975 111.5 61.341 110.2 61.006Z"></path><path id="Vector_9" fill="#0f172a" d="M118.751 85.4L118.637 86.939L115.137 84.07C116.262 84.545 117.478 84.982 118.751 85.4Z"></path><path id="Vector_10" fill="#0f172a" d="M95.3462 88.535C95.8962 88.174 96.4852 87.775 97.1122 87.319L97.4922 81.695L95.3462 88.535Z"></path><path id="Vector_11" fill="#0f172a" d="M101.368 117.773C100.472 116.24 99.8304 114.571 99.468 112.833L101.919 126.17C102.527 125.03 103.119 123.87 103.686 122.67L101.368 117.773Z"></path><path id="Vector_12" fill="#0f172a" d="M98.8791 90.529C96.5421 89.694 96.2951 88.554 98.5371 87.661L98.8791 90.529Z"></path><path id="Vector_13" fill="#0f172a" d="M116.984 87.68L116.509 90.567C117.744 90.13 118.485 89.598 118.485 89.029C118.485 88.535 117.953 88.079 116.984 87.68Z"></path><path id="Vector_14" fill="#0f172a" d="M45.7411 135.612L42.1511 135.84C43.0821 133.655 44.5451 133.522 45.7411 135.612Z"></path><path id="Vector_15" fill="#0f172a" d="M46.6911 149.443C45.8361 151.722 44.4121 152.197 43.1201 150.202C44.2921 149.869 45.4851 149.616 46.6911 149.443Z"></path><path id="Vector_16" fill="#0f172a" d="M23.3621 162.57C21.4341 161.776 22.1521 158.527 23.2841 155.57C25.3041 150.286 29.7581 142.877 33.6591 138.902C36.5641 135.941 39.6731 134.885 39.4161 138.424C38.9491 144.873 27.5131 163.3 23.3621 162.57Z"></path><path id="Vector_17" fill="#0f172a" d="M110.81 51.184C110.708 50.6638 110.447 50.1883 110.062 49.8239C109.677 49.4595 109.188 49.2242 108.663 49.151C108.785 48.7229 108.791 48.2704 108.683 47.8389C108.574 47.4073 108.354 47.012 108.044 46.6927C107.734 46.3733 107.345 46.1412 106.917 46.0196C106.489 45.898 106.037 45.8913 105.605 46C105.554 45.5473 105.382 45.1166 105.108 44.7531C104.833 44.3896 104.466 44.1066 104.044 43.9337C103.623 43.7608 103.163 43.7044 102.712 43.7705C102.261 43.8365 101.836 44.0225 101.482 44.309C101.274 43.893 100.956 43.5422 100.562 43.2951C100.169 43.0481 99.7143 42.9142 99.2494 42.9083C98.7845 42.9025 98.327 43.0247 97.927 43.2618C97.5271 43.4988 97.2001 43.8414 96.982 44.252C96.6369 43.9546 96.2179 43.756 95.7692 43.6769C95.3205 43.5979 94.8589 43.6414 94.4329 43.8029C94.0069 43.9644 93.6324 44.2378 93.3488 44.5944C93.0653 44.951 92.8833 45.3776 92.822 45.829C92.3937 45.7066 91.9406 45.6993 91.5085 45.8077C91.0764 45.9162 90.6806 46.1366 90.3608 46.4468C90.041 46.7569 89.8086 47.1459 89.6869 47.5745C89.5653 48.003 89.5588 48.4561 89.668 48.888C89.2168 48.9416 88.7881 49.1148 88.4264 49.3898C88.0646 49.6647 87.7829 50.0314 87.6104 50.4518C87.438 50.8721 87.381 51.331 87.4455 51.7808C87.5099 52.2306 87.6935 52.655 87.977 53.01C87.561 53.2176 87.2102 53.5358 86.9632 53.9296C86.7161 54.3235 86.5823 54.7777 86.5764 55.2426C86.5705 55.7075 86.6928 56.165 86.9298 56.565C87.1668 56.965 87.5094 57.2919 87.92 57.51C87.6182 57.8537 87.4152 58.2728 87.3325 58.7227C87.2497 59.1726 87.2904 59.6365 87.4502 60.0651C87.61 60.4937 87.8829 60.871 88.24 61.1569C88.597 61.4429 89.0249 61.6267 89.478 61.689C89.3557 62.1174 89.3483 62.5704 89.4568 63.0025C89.5652 63.4346 89.7856 63.8305 90.0958 64.1503C90.406 64.4701 90.7949 64.7025 91.2235 64.8241C91.6521 64.9457 92.1051 64.9522 92.537 64.843C92.5879 65.2957 92.7595 65.7264 93.034 66.09C93.3085 66.4535 93.6757 66.7366 94.0971 66.9095C94.5186 67.0824 94.9788 67.1388 95.4295 67.0727C95.8803 67.0067 96.3049 66.8206 96.659 66.534C96.8666 66.95 97.1848 67.3008 97.5786 67.5479C97.9725 67.795 98.4268 67.9288 98.8917 67.9347C99.3565 67.9406 99.8141 67.8183 100.214 67.5813C100.614 67.3442 100.941 67.0016 101.159 66.591C101.503 66.8928 101.922 67.0959 102.372 67.1786C102.822 67.2613 103.285 67.2206 103.714 67.0608C104.143 66.901 104.52 66.6281 104.806 66.271C105.092 65.914 105.276 65.4862 105.338 65.033C105.7 65.1352 106.081 65.1558 106.452 65.0934C106.823 65.0309 107.176 64.887 107.485 64.672C108.086 62.0667 108.536 59.429 108.834 56.772C105.734 54.872 107.276 52.272 108.891 53.865C109.822 54.796 109.651 52.877 109.081 51.49C109.63 51.2688 110.219 51.1646 110.81 51.184Z"></path><path id="Vector_18" fill="#0f172a" d="M171.3 166.617L167.215 157.877C167.123 157.697 166.965 157.559 166.773 157.494C166.582 157.428 166.372 157.44 166.189 157.527C166.006 157.613 165.864 157.768 165.793 157.957C165.722 158.147 165.728 158.357 165.809 158.542L169.894 167.282C169.936 167.377 169.996 167.463 170.072 167.535C170.147 167.607 170.237 167.662 170.334 167.699C170.432 167.735 170.535 167.752 170.639 167.747C170.743 167.743 170.845 167.718 170.94 167.673C171.034 167.629 171.118 167.566 171.187 167.488C171.256 167.411 171.31 167.32 171.343 167.221C171.377 167.123 171.39 167.019 171.383 166.915C171.376 166.811 171.347 166.71 171.3 166.617V166.617Z"></path></g><g id="outlines"><path id="Vector_19" stroke="#64748b" stroke-linecap="round" stroke-linejoin="round" d="M12.02 195H187.98"></path><path id="Vector_20" stroke="#64748b" stroke-linecap="round" stroke-linejoin="round" d="M122.209 109.851C123.479 109.851 124.697 109.347 125.596 108.449C126.494 107.551 126.999 106.333 127 105.063V87.471"></path><path id="Vector_21" stroke="#64748b" stroke-linecap="round" stroke-linejoin="round" d="M87.4419 92.22V105.044C87.4433 106.16 87.8321 107.241 88.5419 108.103"></path><path id="Vector_22" stroke="#64748b" stroke-linecap="round" stroke-linejoin="round" d="M78.0759 126.569V101.453"></path><path id="Vector_23" stroke="#64748b" stroke-linecap="round" stroke-linejoin="round" d="M119.093 155.047H85.7929C84.2611 155.05 82.7632 154.596 81.4907 153.743C80.2183 152.89 79.2292 151.677 78.6499 150.259"></path><path id="Vector_24" stroke="#64748b" stroke-linecap="round" stroke-linejoin="round" d="M136.362 88.744V147.315C136.366 147.671 136.34 148.027 136.286 148.379"></path><path id="Vector_25" stroke="#64748b" stroke-linecap="round" stroke-linejoin="round" d="M136.305 43.737C136.052 41.8979 135.129 40.2172 133.712 39.0175C132.295 37.8178 130.486 37.1837 128.63 37.237H85.8079C84.8088 37.2023 83.8128 37.3685 82.879 37.7257C81.9452 38.0828 81.0926 38.6238 80.3716 39.3164C79.6506 40.009 79.076 40.8393 78.6816 41.758C78.2873 42.6767 78.0813 43.6652 78.0759 44.665V69.29"></path><path id="Vector_26" stroke="#64748b" stroke-linecap="round" stroke-linejoin="round" d="M82.0999 79.31V74.476C82.1007 73.7722 81.9626 73.0752 81.6936 72.4248C81.4246 71.7745 81.03 71.1835 80.5323 70.6859C80.0346 70.1883 79.4436 69.7938 78.7932 69.5249C78.1428 69.256 77.4457 69.1181 76.7419 69.119H38.4649C37.7612 69.1181 37.0641 69.256 36.4138 69.5249C35.7634 69.7938 35.1725 70.1884 34.6749 70.686C34.1773 71.1836 33.7827 71.7745 33.5138 72.4249C33.2449 73.0753 33.107 73.7723 33.1079 74.476V96.267C33.107 96.9708 33.2449 97.6678 33.5138 98.3181C33.7827 98.9685 34.1773 99.5594 34.6749 100.057C35.1725 100.555 35.7634 100.949 36.4138 101.218C37.0641 101.487 37.7612 101.625 38.4649 101.624H55.6562M82.0999 92.6V96.267C82.1007 96.9705 81.9628 97.6672 81.694 98.3173C81.4253 98.9674 81.031 99.5581 80.5337 100.056C80.0364 100.553 79.4459 100.948 78.796 101.217C78.146 101.486 77.4494 101.624 76.7459 101.624H59.5"></path><path id="Vector_27" stroke="#64748b" stroke-linecap="round" stroke-linejoin="round" d="M155.132 81.3C155.11 81.4323 155.097 81.5659 155.094 81.7C155.091 81.9536 155.139 82.2053 155.234 82.4404C155.33 82.6755 155.471 82.8893 155.649 83.0695C155.828 83.2498 156.04 83.3928 156.274 83.4904C156.508 83.588 156.759 83.6382 157.013 83.638C157.526 83.6359 158.018 83.431 158.381 83.0681C158.744 82.7051 158.949 82.2133 158.951 81.7C158.951 81.2571 158.798 80.8278 158.517 80.4851C158.237 80.1423 157.846 79.9073 157.412 79.82"></path><path id="Vector_28" stroke="#64748b" stroke-linecap="round" stroke-linejoin="round" d="M54.5 77.402L55.05 76.452L55.962 78.029"></path><path id="Vector_29" stroke="#64748b" stroke-linecap="round" stroke-linejoin="round" d="M66.3 77.706C66.5002 77.2797 66.8327 76.9295 67.248 76.7075C67.6634 76.4855 68.1393 76.4037 68.605 76.4741C69.0706 76.5446 69.501 76.7637 69.8321 77.0986C70.1631 77.4336 70.3771 77.8666 70.442 78.333C69.014 78.143 67.627 77.934 66.3 77.706Z"></path><path id="Vector_30" stroke="#64748b" stroke-linecap="round" stroke-linejoin="round" d="M69.0329 91.973L70.3819 94.291H44.7539L52.7899 80.365"></path><path id="Vector_31" stroke="#64748b" stroke-linecap="round" stroke-linejoin="round" d="M132.525 73.709V48.867C132.524 48.1632 132.662 47.4662 132.931 46.8159C133.2 46.1655 133.595 45.5746 134.092 45.0769C134.59 44.5792 135.181 44.1846 135.831 43.9155C136.481 43.6465 137.178 43.5083 137.882 43.509H176.163C176.867 43.5082 177.564 43.6462 178.214 43.9152C178.865 44.1842 179.456 44.5788 179.953 45.0765C180.451 45.5742 180.846 46.1652 181.115 46.8156C181.384 47.466 181.522 48.1631 181.521 48.867V76.338C181.522 77.0418 181.384 77.7388 181.115 78.3892C180.846 79.0395 180.451 79.6304 179.953 80.1281C179.456 80.6257 178.865 81.0202 178.214 81.2891C177.564 81.558 176.867 81.6959 176.163 81.695H159"></path><path id="Vector_32" stroke="#64748b" stroke-linecap="round" stroke-linejoin="round" d="M140.941 43.509C140.93 40.6336 139.781 37.8796 137.744 35.85C135.707 33.8204 132.949 32.6805 130.074 32.68H84.1939C82.7668 32.6797 81.3535 32.9606 80.035 33.5067C78.7164 34.0527 77.5183 34.8531 76.5092 35.8623C75.5 36.8714 74.6996 38.0695 74.1536 39.3881C73.6075 40.7066 73.3266 42.1198 73.3269 43.547V69.119"></path><path id="Vector_33" stroke="#64748b" stroke-linecap="round" stroke-linejoin="round" d="M73.3269 131.793V101.624"></path><path id="Vector_34" stroke="#64748b" stroke-linecap="round" stroke-linejoin="round" d="M121.183 159.455H84.1939C81.6972 159.456 79.2763 158.597 77.3386 157.023C75.4009 155.448 74.0647 153.254 73.5549 150.81"></path><path id="Vector_35" stroke="#64748b" stroke-linecap="round" stroke-linejoin="round" d="M140.941 88.744V148.588C140.942 150.946 140.175 153.24 138.756 155.123"></path><path id="Vector_36" stroke="#64748b" stroke-linecap="round" stroke-linejoin="round" d="M169.59 55.421H139.041V49.968H174.985V55.421H171.794"></path><path id="Vector_37" stroke="#64748b" stroke-linecap="round" stroke-linejoin="round" d="M165.163 58.366H167.101"></path><path id="Vector_38" stroke="#64748b" stroke-linecap="round" stroke-linejoin="round" d="M139.041 74.191V58.366H162.922"></path><path id="Vector_39" stroke="#64748b" stroke-linecap="round" stroke-linejoin="round" d="M170.559 58.366H174.986V75.236H163.511"></path><path id="Vector_40" stroke="#64748b" stroke-linecap="round" stroke-linejoin="round" d="M157.013 83.633V103.562C157.013 105.254 156.68 106.929 156.033 108.491C155.386 110.054 154.437 111.474 153.241 112.67C152.045 113.867 150.625 114.815 149.062 115.463C147.5 116.11 145.825 116.443 144.133 116.443H124.717"></path><path id="Vector_41" stroke="#64748b" stroke-linecap="round" stroke-linejoin="round" d="M84.8591 116.433H70.5001C67.0829 116.431 63.8063 115.072 61.3908 112.655C58.9753 110.238 57.6186 106.96 57.6191 103.543"></path><path id="Vector_42" stroke="#64748b" stroke-linecap="round" stroke-linejoin="round" d="M57.606 157.612V168.384"></path><path id="Vector_43" stroke="#64748b" stroke-linecap="round" stroke-linejoin="round" d="M62.992 162.998H52.22"></path><path id="Vector_44" stroke="#64748b" stroke-linecap="round" stroke-linejoin="round" d="M114.875 60.66C114.552 61.933 111.775 61.367 110.829 61.16L110.129 60.995C110.729 62.341 111.299 63.362 111.299 63.362"></path><path id="Vector_45" stroke="#64748b" stroke-linecap="round" stroke-linejoin="round" d="M119.245 69.727C117.349 69.0363 115.513 68.1911 113.755 67.2C113.255 66.9334 112.814 66.5689 112.458 66.1282C112.103 65.6875 111.839 65.1797 111.684 64.635C111.55 64.216 111.437 63.779 111.303 63.36C113.021 62.929 114.628 62.293 114.875 60.66C115.175 58.694 113.518 55.717 110.867 51.204C110.258 51.1751 109.651 51.2718 109.081 51.488C109.632 52.875 109.825 54.788 108.891 53.863C107.281 52.263 105.737 54.87 108.834 56.77C108.682 58.347 108.434 59.809 108.169 61.291C108.023 62.4334 107.795 63.5637 107.485 64.673C107.116 65.4398 106.577 66.1123 105.909 66.6392C105.24 67.166 104.461 67.5333 103.629 67.713C102.149 68.1421 100.735 68.7749 99.429 69.593C107.294 73.507 119.229 69.727 119.229 69.727H119.245Z"></path><path id="Vector_46" stroke="#64748b" stroke-linecap="round" stroke-linejoin="round" d="M118.637 86.939L115.137 84.051C116.277 84.526 117.455 84.982 118.728 85.381"></path><path id="Vector_47" stroke="#64748b" stroke-linecap="round" stroke-linejoin="round" d="M118.485 89.029C118.668 86.521 118.613 87.343 118.732 85.381C125.15 87.3299 131.775 88.5111 138.471 88.9C139.938 88.9969 141.406 88.7088 142.727 88.064C150.181 84.433 157.314 80.448 163.663 75.088C163.8 70 160.2 64.421 155.835 63.362C150.098 68.34 144.435 72.217 138.186 74.533C137.517 74.781 127.365 73.094 119.226 69.727"></path><path id="Vector_48" stroke="#64748b" stroke-linecap="round" stroke-linejoin="round" d="M95.3459 88.535L97.4919 81.695L97.1119 87.319"></path><path id="Vector_49" stroke="#64748b" stroke-linecap="round" stroke-linejoin="round" d="M96.982 88.977L97.112 87.319C93.9691 89.6645 90.4203 91.4098 86.644 92.467C78.3217 93.0273 69.9618 92.4391 61.8 90.719C60.3 85.933 60.754 81.238 64.061 77.288C71.3259 78.6647 78.7038 79.3581 86.098 79.359C91.456 76.205 95.293 72.12 99.435 69.593"></path><path id="Vector_50" stroke="#64748b" stroke-linecap="round" stroke-linejoin="round" d="M99.392 94.918C99.392 94.918 89.9311 100.807 86.1921 114.448L74.792 131.489C65.7 133.497 55.171 134.173 43.925 134.12"></path><path id="Vector_51" stroke="#64748b" stroke-linecap="round" stroke-linejoin="round" d="M101.9 126.189L99.449 112.852"></path><path id="Vector_52" stroke="#64748b" stroke-linecap="round" stroke-linejoin="round" d="M100.912 102.308C99.6418 104.665 99.004 107.311 99.0606 109.988C99.1172 112.665 99.8663 115.282 101.235 117.583C101.327 117.737 103.686 122.674 103.686 122.674"></path><path id="Vector_53" stroke="#64748b" stroke-linecap="round" stroke-linejoin="round" d="M46.691 149.443C42.018 150.107 37.265 151.929 34.001 155.997C30.863 159.908 25.517 164.055 22.895 162.384"></path><path id="Vector_54" stroke="#64748b" stroke-linecap="round" stroke-linejoin="round" d="M98.5559 87.661L99.3919 94.918C104.77 93.5301 110.413 93.5301 115.792 94.918L117 87.68"></path><path id="Vector_55" stroke="#64748b" stroke-linecap="round" stroke-linejoin="round" d="M116.509 90.567C117.744 90.13 118.485 89.599 118.485 89.029C118.485 88.535 117.954 88.078 117.003 87.68C112.864 85.946 102.736 85.953 98.5561 87.661C97.8761 87.939 96.8081 88.495 97.0041 89.207C97.1381 89.694 97.8121 90.157 98.8791 90.529"></path><path id="Vector_56" stroke="#64748b" stroke-linecap="round" stroke-linejoin="round" d="M167.633 61.6C168.051 61.182 169.286 60.081 169.894 59.378"></path><path id="Vector_57" stroke="#64748b" stroke-linecap="round" stroke-linejoin="round" d="M163.074 61.31C163.682 60.949 164.252 60.61 164.745 60.266"></path><path id="Vector_58" stroke="#64748b" stroke-linecap="round" stroke-linejoin="round" d="M169.534 63.101L167.652 64.749"></path><path id="Vector_59" stroke="#64748b" stroke-linecap="round" stroke-linejoin="round" d="M167.785 67.542C167.785 67.542 168.866 66.522 169.201 66.242"></path><path id="Vector_60" stroke="#64748b" stroke-linecap="round" stroke-linejoin="round" d="M115.787 94.918C130.074 126.664 135.108 149.218 148.749 179.726C143.617 183.375 139.029 184.054 132.81 183.886L103.686 122.674L101.9 126.189C98.4449 132.225 94.5123 137.974 90.1399 143.382C88.6479 145.321 86.7803 146.939 84.6488 148.141C82.5172 149.342 80.1655 150.101 77.7339 150.373C66.7886 151.638 55.7578 152.002 44.7529 151.459"></path><path id="Vector_61" stroke="#64748b" stroke-linecap="round" stroke-linejoin="round" d="M146.2 181.34L148.366 185.634C152.85 186.945 157.881 190.46 161.285 193.347C161.432 193.471 161.537 193.637 161.586 193.823C161.635 194.008 161.626 194.205 161.56 194.385C161.494 194.565 161.375 194.721 161.217 194.831C161.06 194.941 160.872 195 160.68 195C151.029 194.991 144.247 194.9 136.48 194.886C136.194 194.885 135.91 194.825 135.648 194.71C135.386 194.595 135.15 194.427 134.956 194.216C134.762 194.006 134.613 193.758 134.519 193.487C134.425 193.217 134.388 192.93 134.41 192.644C134.615 190.246 135.126 187.884 135.929 185.615L134.885 183.924"></path><path id="Vector_62" stroke="#64748b" stroke-linecap="round" stroke-linejoin="round" d="M43.1201 150.2C43.8471 151.324 44.6201 151.664 45.3041 151.339C47.0951 150.492 47.4891 146.039 47.4891 144.026C47.4891 141.048 46.5781 134.504 44.0981 134.131C43.3751 134.022 42.6781 134.602 42.1511 135.838"></path><path id="Vector_63" stroke="#64748b" stroke-linecap="round" stroke-linejoin="round" d="M37.0211 136.443C35.7774 137.07 34.6423 137.893 33.6591 138.88C30.1129 142.568 27.2215 146.834 25.1091 151.494C23.1571 155.619 21.9331 159.65 22.3741 161.506C22.6741 162.784 23.7231 162.824 24.8821 162.197C30.5561 159.125 41.9481 139.097 38.9211 136.486C38.6485 136.281 38.3188 136.167 37.978 136.159C37.6372 136.152 37.3026 136.251 37.0211 136.443V136.443Z"></path><path id="Vector_64" stroke="#64748b" stroke-linecap="round" stroke-linejoin="round" d="M111.285 94.082C111.285 94.082 110.525 103.03 112.485 107.514C114.445 111.998 142.635 182.822 142.635 182.822"></path><path id="Vector_65" stroke="#64748b" stroke-linecap="round" stroke-linejoin="round" d="M101.026 117.336C96.7688 124.483 92.1395 131.401 87.1571 138.063C83.9911 142.096 78.8741 143.216 73.7641 143.591C65.0278 144.243 56.2612 144.389 47.5081 144.028"></path><path id="Vector_66" stroke="#64748b" stroke-linecap="round" stroke-linejoin="round" d="M59.534 101.624C59.5342 102.008 59.4206 102.382 59.2076 102.701C58.9945 103.02 58.6917 103.269 58.3374 103.416C57.983 103.562 57.5931 103.601 57.217 103.526C56.8409 103.451 56.4955 103.266 56.2245 102.994C55.9536 102.723 55.7692 102.377 55.6948 102.001C55.6204 101.625 55.6593 101.235 55.8065 100.881C55.9538 100.527 56.2028 100.224 56.5221 100.012C56.8413 99.7992 57.2164 99.6862 57.6 99.687C58.1124 99.6902 58.603 99.8954 58.9651 100.258C59.3272 100.621 59.5316 101.112 59.534 101.624Z"></path><path id="Vector_67" stroke="#64748b" stroke-linecap="round" stroke-linejoin="round" d="M18.479 85.077L21.842 89.827L25.793 82.949"></path><path id="Vector_68" stroke="#64748b" stroke-linecap="round" stroke-linejoin="round" d="M109.081 51.488C109.651 52.875 109.825 54.788 108.891 53.863C107.281 52.263 105.737 54.87 108.834 56.77C108.682 58.328 108.434 59.81 108.169 61.291C108.02 62.4328 107.791 63.5628 107.485 64.673C107.061 64.9675 106.557 65.1265 106.041 65.129C105.805 65.1264 105.569 65.0945 105.341 65.034C105.279 65.4871 105.095 65.915 104.809 66.272C104.523 66.6291 104.146 66.902 103.717 67.0618C103.288 67.2216 102.825 67.2623 102.375 67.1796C101.925 67.0968 101.506 66.8938 101.162 66.592C100.944 67.0026 100.617 67.3452 100.217 67.5822C99.817 67.8193 99.3595 67.9415 98.8946 67.9356C98.4297 67.9298 97.9754 67.7959 97.5816 67.5489C97.1877 67.3018 96.8696 66.951 96.662 66.535C96.3078 66.8212 95.8831 67.007 95.4325 67.0729C94.9819 67.1388 94.5218 67.0823 94.1005 66.9095C93.6791 66.7366 93.312 66.4537 93.0375 66.0904C92.7629 65.727 92.5911 65.2965 92.54 64.844C92.1081 64.9532 91.655 64.9467 91.2264 64.8251C90.7979 64.7035 90.4089 64.4711 90.0987 64.1513C89.7886 63.8315 89.5682 63.4356 89.4597 63.0035C89.3513 62.5714 89.3586 62.1183 89.481 61.69C89.0278 61.6277 88.6 61.4438 88.2429 61.1579C87.8859 60.872 87.613 60.4947 87.4532 60.0661C87.2934 59.6374 87.2527 59.1736 87.3354 58.7237C87.4181 58.2738 87.6212 57.8547 87.923 57.511C87.5124 57.2929 87.1697 56.966 86.9327 56.566C86.6957 56.166 86.5734 55.7085 86.5793 55.2436C86.5852 54.7787 86.719 54.3244 86.9661 53.9306C87.2132 53.5368 87.564 53.2186 87.98 53.011C87.6964 52.6559 87.5129 52.2316 87.4484 51.7818C87.384 51.332 87.4409 50.8731 87.6134 50.4527C87.7858 50.0323 88.0675 49.6657 88.4293 49.3908C88.7911 49.1158 89.2197 48.9426 89.671 48.889C89.5617 48.4571 89.5683 48.004 89.6899 47.5754C89.8115 47.1469 90.0439 46.7579 90.3637 46.4478C90.6835 46.1376 91.0794 45.9172 91.5115 45.8087C91.9436 45.7003 92.3966 45.7076 92.825 45.83C92.8863 45.3786 93.0683 44.952 93.3518 44.5954C93.6353 44.2388 94.0098 43.9653 94.4358 43.8038C94.8618 43.6423 95.3235 43.5988 95.7721 43.6779C96.2208 43.7569 96.6398 43.9556 96.985 44.253C97.203 43.8424 97.53 43.4998 97.93 43.2627C98.3299 43.0257 98.7875 42.9034 99.2523 42.9093C99.7172 42.9152 100.172 43.049 100.565 43.2961C100.959 43.5432 101.277 43.894 101.485 44.31C101.839 44.0243 102.264 43.839 102.714 43.7733C103.164 43.7077 103.624 43.7642 104.045 43.9368C104.466 44.1095 104.833 44.3921 105.107 44.755C105.381 45.1179 105.553 45.5479 105.605 46C106.037 45.8911 106.49 45.8978 106.918 46.0194C107.346 46.1411 107.735 46.3734 108.045 46.6931C108.355 47.0127 108.575 47.4083 108.684 47.8402C108.792 48.272 108.785 48.7248 108.663 49.153C109.188 49.2261 109.677 49.4612 110.062 49.8257C110.447 50.1902 110.708 50.6657 110.81 51.186C110.219 51.1653 109.63 51.2682 109.081 51.488V51.488Z"></path><path id="Vector_69" stroke="#64748b" stroke-linecap="round" stroke-linejoin="round" d="M160.832 28.881L153.214 36.48"></path><path id="Vector_70" stroke="#64748b" stroke-linecap="round" stroke-linejoin="round" d="M160.813 36.499L153.233 28.881"></path><path id="Vector_71" stroke="#64748b" stroke-linecap="round" stroke-linejoin="round" d="M171.319 166.617C171.407 166.806 171.417 167.022 171.345 167.218C171.274 167.414 171.128 167.574 170.939 167.662C170.75 167.75 170.534 167.76 170.338 167.688C170.142 167.617 169.982 167.471 169.894 167.282L165.828 158.543C165.747 158.358 165.741 158.148 165.812 157.958C165.883 157.769 166.025 157.614 166.208 157.528C166.391 157.441 166.6 157.429 166.792 157.495C166.984 157.56 167.142 157.698 167.234 157.878L171.319 166.617Z"></path><path id="Vector_72" stroke="#64748b" stroke-linecap="round" stroke-linejoin="round" d="M164.157 153.147L166.531 158.22"></path><path id="Vector_73" stroke="#64748b" stroke-linecap="round" stroke-linejoin="round" d="M158.267 140.532C157.019 141.114 155.973 142.054 155.259 143.231C154.545 144.408 154.197 145.771 154.257 147.146C154.318 148.522 154.785 149.848 155.6 150.958C156.414 152.068 157.54 152.911 158.833 153.382C160.127 153.852 161.532 153.928 162.869 153.6C164.206 153.273 165.416 152.556 166.346 151.54C167.275 150.525 167.883 149.256 168.092 147.896C168.301 146.535 168.101 145.142 167.519 143.895C166.737 142.223 165.323 140.931 163.589 140.3C161.854 139.67 159.94 139.753 158.267 140.532Z"></path><path id="Vector_74" stroke="#64748b" stroke-linecap="round" stroke-linejoin="round" d="M78.174 14.014C77.828 13.975 77.565 13.934 77.424 13.551C77.224 13.03 76.8809 12.596 77.3149 12.14C77.7256 11.7277 77.9562 11.1694 77.9562 10.5875C77.9562 10.0055 77.7256 9.44731 77.3149 9.03499L76.2509 7.99299C75.8388 7.58385 75.2817 7.35424 74.7009 7.35424C74.1202 7.35424 73.5631 7.58385 73.1509 7.99299C72.7169 8.42699 72.2609 8.07999 71.7609 7.88399C71.6247 7.83313 71.5077 7.74109 71.4261 7.62066C71.3446 7.50023 71.3026 7.35739 71.3059 7.21199C71.3067 6.92378 71.2506 6.63825 71.1406 6.37183C71.0307 6.10541 70.8692 5.86334 70.6654 5.65954C70.4616 5.45574 70.2195 5.29424 69.9531 5.18431C69.6867 5.07438 69.4012 5.0182 69.1129 5.01899H67.6129C67.3248 5.0182 67.0393 5.07439 66.7729 5.18433C66.5066 5.29427 66.2646 5.45579 66.0608 5.6596C65.8571 5.86341 65.6957 6.10549 65.5859 6.3719C65.4761 6.63832 65.42 6.92383 65.4209 7.21199C65.4209 7.81999 64.8559 7.91199 64.3569 8.12399C64.2265 8.18104 64.0818 8.19695 63.9421 8.16962C63.8023 8.14228 63.6743 8.07299 63.5749 7.97099C63.1628 7.56185 62.6057 7.33224 62.0249 7.33224C61.4442 7.33224 60.8871 7.56185 60.4749 7.97099L59.3829 9.03499C59.1789 9.23876 59.017 9.48077 58.9065 9.74716C58.7961 10.0136 58.7392 10.2991 58.7392 10.5875C58.7392 10.8759 58.7961 11.1614 58.9065 11.4278C59.017 11.6942 59.1789 11.9362 59.3829 12.14C59.8169 12.574 59.4699 13.03 59.2739 13.551C59.2232 13.6876 59.1311 13.805 59.0104 13.8867C58.8898 13.9684 58.7466 14.0105 58.6009 14.007C58.3128 14.0062 58.0273 14.0624 57.7609 14.1723C57.4946 14.2823 57.2526 14.4438 57.0488 14.6476C56.8451 14.8514 56.6837 15.0935 56.5739 15.3599C56.4641 15.6263 56.408 15.9118 56.4089 16.2L56.4309 17.7C56.4302 17.9881 56.4863 18.2736 56.5962 18.5399C56.706 18.8063 56.8675 19.0483 57.0711 19.2521C57.2748 19.4559 57.5168 19.6174 57.7831 19.7274C58.0494 19.8374 58.3348 19.8936 58.6229 19.893C59.2309 19.893 59.3229 20.458 59.5349 20.957C59.5962 21.0895 59.6145 21.2379 59.5872 21.3814C59.56 21.5248 59.4886 21.6562 59.3829 21.757C58.9723 22.1683 58.7417 22.7258 58.7417 23.307C58.7417 23.8882 58.9723 24.4456 59.3829 24.857L60.4469 25.921C60.8591 26.3301 61.4162 26.5597 61.9969 26.5597C62.5777 26.5597 63.1348 26.3301 63.5469 25.921C63.9809 25.486 64.4369 25.833 64.9369 26.029C65.073 26.0806 65.1897 26.173 65.2713 26.2934C65.353 26.4138 65.3954 26.5565 65.3929 26.702C65.3915 26.9909 65.4473 27.2772 65.5571 27.5444C65.6669 27.8116 65.8286 28.0544 66.0328 28.2587C66.237 28.4631 66.4796 28.625 66.7467 28.7351C67.0138 28.8451 67.3001 28.9012 67.5889 28.9L69.1089 28.878C69.397 28.8785 69.6823 28.8221 69.9485 28.7121C70.2147 28.602 70.4565 28.4405 70.6601 28.2367C70.8637 28.033 71.025 27.791 71.1348 27.5247C71.2446 27.2584 71.3007 26.973 71.2999 26.685C71.2999 26.077 71.8639 25.991 72.3639 25.773C72.4966 25.7118 72.645 25.6937 72.7885 25.7212C72.9319 25.7486 73.0632 25.8202 73.1639 25.926C73.5761 26.3351 74.1332 26.5647 74.7139 26.5647C75.2947 26.5647 75.8518 26.3351 76.2639 25.926L77.3059 24.862C77.7151 24.4499 77.9447 23.8927 77.9447 23.312C77.9447 22.7313 77.7151 22.1741 77.3059 21.762C76.8719 21.328 77.2189 20.872 77.4149 20.351C77.4665 20.2149 77.5588 20.098 77.6792 20.0164C77.7997 19.9348 77.9424 19.8924 78.0879 19.895C78.377 19.897 78.6636 19.8416 78.9312 19.7321C79.1987 19.6225 79.4419 19.461 79.6466 19.2569C79.8513 19.0527 80.0135 18.81 80.1237 18.5428C80.234 18.2755 80.2901 17.9891 80.2889 17.7V16.2C80.2892 15.6323 80.0687 15.0868 79.674 14.6788C79.2793 14.2709 78.7413 14.0324 78.174 14.014V14.014Z"></path><path id="Vector_75" stroke="#64748b" stroke-linecap="round" stroke-linejoin="round" d="M68.349 22.539C67.2415 22.539 66.1588 22.2106 65.2378 21.5952C64.3169 20.9799 63.5992 20.1053 63.1753 19.082C62.7514 18.0588 62.6406 16.9328 62.8566 15.8465C63.0727 14.7602 63.6061 13.7624 64.3892 12.9792C65.1724 12.196 66.1702 11.6627 67.2565 11.4466C68.3428 11.2305 69.4688 11.3414 70.4921 11.7653C71.5153 12.1891 72.3899 12.9069 73.0053 13.8278C73.6206 14.7487 73.949 15.8314 73.949 16.939C73.9514 17.6751 73.8082 18.4043 73.5276 19.0848C73.247 19.7653 72.8346 20.3836 72.3141 20.9041C71.7936 21.4246 71.1754 21.837 70.4949 22.1176C69.8144 22.3981 69.0851 22.5414 68.349 22.539V22.539Z"></path><path id="Vector_76" stroke="#64748b" stroke-linecap="round" stroke-linejoin="round" d="M171.584 56.167C171.801 55.509 172.231 53.906 171.642 53.559C171.224 53.312 170.369 54.395 169.609 55.421C168.3 57.322 166.651 58.9646 164.745 60.266C165.068 58.955 165.772 55.801 165.163 55.421H164.863C163.948 56.3363 163.242 57.438 162.791 58.651C162.183 59.961 159.455 62.724 157.65 64.073C159.21 65.0342 160.543 66.3232 161.556 67.8507C162.568 69.3781 163.237 71.1075 163.515 72.919C168.051 69.712 168.877 69.106 169.326 68.777C170.301 67.839 170.067 66.21 169.203 66.24C170.142 65.132 170.503 63.501 169.536 63.101C170.311 62.17 170.718 60.377 169.896 59.373C170.628 58.4025 171.198 57.3198 171.584 56.167V56.167Z"></path><path id="Vector_77" stroke="#64748b" stroke-linecap="round" stroke-linejoin="round" d="M61.0361 87.011C59.2454 86.573 57.4076 86.3573 55.5641 86.369C51.4791 86.485 52.8641 85.413 54.2721 84.944C55.8271 84.425 59.6101 83.633 58.1851 82.569C57.2541 82.132 56.5851 81.769 56.0571 81.469C53.4899 80.5317 50.8701 79.7454 48.2111 79.114C45.8771 78.553 46.2561 78.036 46.6341 77.955C48.0134 77.7588 49.4125 77.746 50.7951 77.917C50.5101 77.67 50.2241 77.424 49.9591 77.176C47.4591 74.838 47.6281 73.876 51.4051 75.884C54.7979 77.8256 58.5002 79.1673 62.3491 79.85"></path><path id="Vector_78" stroke="#64748b" stroke-linecap="round" stroke-linejoin="round" d="M60.1231 83.443C59.3821 83.12 58.7361 82.835 58.1851 82.569"></path><path id="Vector_79" stroke="#64748b" stroke-linecap="round" stroke-linejoin="round" d="M50.8 77.915C51.9 78.815 55.5 81.149 56.062 81.467"></path><path id="Vector_80" stroke="#64748b" stroke-linecap="round" stroke-linejoin="round" d="M38.0439 136.15L45.7439 135.612"></path></g></g></g></svg>